<?xml version="1.0" ?><!DOCTYPE svg  PUBLIC '-//W3C//DTD SVG 1.1//EN'  'http://www.w3.org/Graphics/SVG/1.1/DTD/svg11.dtd'><svg enable-background="new 0 0 512 512" height="512px" id="Слой_1" version="1.1" viewBox="0 0 512 512" width="512px" xml:space="preserve" xmlns="http://www.w3.org/2000/svg" xmlns:xlink="http://www.w3.org/1999/xlink"><g><g><path clip-rule="evenodd" d="M100.33,63.425l-36.897,36.891l18.622,18.62h14.142     l22.696-22.751V82.046L100.33,63.425z M290.918,256.086c-0.018-7.173-1.938-13.574-5.763-19.202l-10.822,10.884     c1.136,2.529,1.697,5.305,1.687,8.318c0,2.969-0.562,5.706-1.687,8.206l10.882,10.881     C288.999,269.597,290.9,263.232,290.918,256.086z M365.756,214.832l-28.516-0.059l-15.015-14.955l-16.177,16.177l9.718,5.586     v69.128l-9.486,5.471l15.945,16.002l14.958-15.014l28.515-0.059l114.47,114.516l-68.555,68.546L297.145,365.715l0.057-28.513     l14.958-15.013l-18.622-18.62l-37.595,21.646l-37.477-21.646l-18.623,18.62l14.956,15.013l0.057,28.513L100.386,480.171     l-68.554-68.546l114.472-114.516l28.516,0.059l14.955,15.014l15.945-15.945l-9.544-5.527v-69.128l9.719-5.586l-16.12-16.117     l-14.955,14.896l-28.575,0.059L31.775,100.375l68.554-68.546l114.526,114.457l-0.057,28.513l-15.015,14.955l18.854,18.853     l37.305-21.589l37.36,21.589l18.913-18.853l-15.015-14.955l-0.057-28.513L411.673,31.829l68.552,68.546L365.756,214.832z      M344.398,190.335h14.142l18.563-18.621l-36.838-36.834l-18.622,18.563v14.198L344.398,190.335z M394.271,154.606l18.565-18.563     l-36.838-36.892l-18.623,18.62v14.141l22.696,22.693H394.271z M393.107,82.046v14.139l22.696,22.751h14.142l18.622-18.62     l-36.895-36.891L393.107,82.046z M264.321,237.7l10.825-10.824c-5.624-3.743-12.025-5.605-19.204-5.586     c-7.129-0.02-13.492,1.823-19.089,5.529l10.825,10.821c2.525-1.122,5.281-1.684,8.264-1.687     C258.986,235.957,261.779,236.539,264.321,237.7z M237.61,247.708l-10.825-10.824c-3.808,5.61-5.708,12.011-5.701,19.202     c-0.007,7.188,1.876,13.588,5.645,19.202l10.882-10.821c-1.173-2.553-1.755-5.344-1.745-8.381     C235.867,253.054,236.449,250.263,237.61,247.708z M358.54,321.607h-14.201l-22.695,22.753v14.138l18.622,18.563l36.838-36.834     L358.54,321.607z M236.797,285.299c5.595,3.773,11.976,5.655,19.146,5.644c7.203,0.012,13.623-1.889,19.263-5.703l-10.884-10.823     c-2.568,1.166-5.381,1.748-8.438,1.745c-2.982,0.003-5.737-0.559-8.263-1.687L236.797,285.299z M154.624,117.772l-18.623-18.62     l-36.835,36.892l18.563,18.563h14.199l22.696-22.693V117.772z M167.602,190.335l22.755-22.694v-14.198l-18.622-18.563     l-36.838,36.834l18.563,18.621H167.602z M153.46,321.607l-18.563,18.62l36.838,36.834l18.622-18.563V344.36l-22.695-22.753     H153.46z M154.624,394.228v-14.199l-22.696-22.694h-14.14l-18.623,18.621l36.895,36.833L154.624,394.228z M63.433,411.625     l36.897,36.893l18.623-18.62v-14.141l-22.755-22.693H82.055L63.433,411.625z M415.804,393.063l-22.696,22.693v14.141     l18.565,18.62l36.895-36.893l-18.622-18.562H415.804z M412.837,375.955l-18.623-18.621h-14.142l-22.696,22.694v14.199     l18.563,18.561L412.837,375.955z" fill="#333333" fill-rule="evenodd"/></g></g></svg>