<?xml version="1.0" encoding="utf-8"?>
<svg xmlns="http://www.w3.org/2000/svg" viewBox="0 0 1536 1792" height="1792" width="1536">
    <path d="M65.8 1346.7l43.8-218.6-44-131.9-44-132.9L65.7 687 110 510.7 66.2 336 23.7 158.7s79.4 19.6 174.3 43.6l174.3 44 176.3-44.1c57.1-14.6 107.3-29.3 176.3-44.1l131.9 44.1 131.9 43.9 174.3-43.5c95.8-23.9 176.3-42.7 176.3-42.7s41.4 137.9 89.7 307.3l87.5 306.3-44.2 88.4-44.2 88.4v178.2l-43.5 173.3-44.3 174.3-175.3 44.5-174.3 43.7-131.9-44.1-131.9-44.1-177.3 44.4-177.3 44.4H196.1c-55.8-12.7-174 .985-174 .985 5.119-43.51 34.4-172.69 43.7-219.18z" fill="none" stroke="#fff" stroke-width="30"/>
    <path d="M917.29 1498.1c-19.18-12.37-54.99-71.9-79.59-91.4-7.3-5.9-31.9-24.8-54.5-42.1-60.6-46.3-82.8-65-105.3-89.1-20.2-20.9-19.8-20.1-41.7-89.6-9.1-29.3-15.4-44.3-29.6-70.8-27.5-51.3-59.9-96.1-88.1-121.1-22.8-20.7-41.6-28-65.7-25.5-39.7 4.1-60.9 19.9-131 98.5-11.8 13.1-27.7 29.9-35.4 37.4-34.2 33-33 38.5-127 64.1-24 6.5-40.9 13.2-47.7 15.4-17.6 5.7-13.1-5.9.197-12.2 26.5-10.7 38.8-11 54.8-16.9 56.9-14.7 52.3-12.7 72.8-29.5 12-9.8 103.4-95.7 123.1-115.2 23.3-23.4 30-32.9 34.2-47.4 1.1-4.1 6.6-32.1 11.9-62.1 15.6-87.8 21.8-113.2 34.1-142.8 12.3-29.5 24.1-50.3 37.1-65.2 9.2-10.6 27.7-27 34.4-30.6 18.2-9.5 66.2-38 99.4-48.3 26-8.1-23.37 134.7 3.722 242.1 27 107.3 130.57 178.39 104.97 178.39-32.6-.1-33.3 9.9-39 10.6-12.5 1.3-20.4 5.2-29 13.9-11.8 11.9-14.5 20.5-13.5 42.5 1 26.9 8.4 47.8 33.8 95.6 24.2 45.8 12.1 58 32.5 82.5 3.6 4.4 79.7 71.6 118.2 107.3 42.7 30.5 94.35 98.41 97.95 101.68 23.52 21.46 91.75 69.94 91.24 71.84-.083.3-97.29-62.03-97.29-62.03z" fill="none" stroke="#fff" stroke-width="6"/>
    <path d="M460 947.7c-17.5-9.4-24.7-24.8-25.5-47.2-.788-22.4 4.5-52 9.1-74.7 4.5-22.7 8.3-38.6 13.4-56.5 5.1-17.8 11.1-36 21.7-52.3 10.5-16.1 25-29.2 38.6-38.2 13.5-8.8 26.1-13.4 37.8-15.7 11.6-2.2 22.3-2.2 34.6 0s1.1 5.7 10 17.5c-5 15-2.3 33.4-5.6 48.9-3.1 15.4 2.1 39 3 54-12.5 9.9-17.4.887-25.8 12.3-8.3 11.3-11.2 27.3-10.2 43.9.985 16.5 6 33.6 7.4 52.6 1.4 18.9-.591 40.1-7 52.6-6.4 12.3-17.3 16-36.8 16-19.4 0-47.5-3.6-65.1-13.1z" fill="none" stroke="#fff" stroke-width="4.9"/>
    <path d="M237.4 214.9l-41.3 151.6 88.2 53.3L372.5 664 226.8 815.6l57.9 56.2-88.2 89.9 176.3 182.2 88.2-59 88.2 179.2-52.4 179.2h52.4l88.2-179.2 88.2-33.6 176.3 123.1 137.9-89.9-49.6-53.3-38.6-36.5 38.6-89.9h131.9l16.5-89.9 289.5-46.1m-878.4 578.9l-.5-83.6" fill="none" stroke="#fff" stroke-width="12"/>
    <path d="M1068.8 1545.6c-16.5-25.5-18.8-34.3-31.1-54.8-12.2-20.3-19.8-34.8-23.7-51.6-3.8-16.6-3.8-34.9 4.8-49.6 8.6-14.5 27-25.8 39.5-36 12.5-10.1 19.6-19.6 20.7-36 1-16.4-2.2-32.9-4.5-54.8-2.2-21.8-2.7-45.8 1.3-65.1 4.1-19.2 13.2-33.9 24.8-41.5 11.5-7.5 25.8-7.9 42.1-3.4 16.2 4.5 34.6 14.1 53.2 26.3 18.6 12 37.4 26.4 68.3 50.7 30.8 24.1 73.3 57.8 116.2 91.6M612.7 208.9c-39-14.4-44 8.4-45.6 14-1.5 5.6-4.8 16.8-10.3 25.5-5.5 8.6-13.2 14.5-22.7 19.7-9.3 5.2-20.3 9.8-34 15.4-13.5 5.6-29.9 12.2-38.3 20-8.3 7.7-8.7 16.7-.296 27.7s16.6 18.1 33 31.8c16.3 13.5 54.9 30.8 66 40.9 11.1 10.1 27.2 14 37.4 17.7 10 3.6 30 19.5 39.5 28.2 9.4 8.6 12.3 14.4 16.4 34.3 4.1 19.8-19.9 39.4-28.2 54.2-8.2 14.7-7.232-53.05-30.01-54.32-19.84-1.11-136.15 42.39-109.78 52.42 35.36 13.45 21.41 30.46-3.862 59.59-14.98 17.27-53.81 4.86-72.28 43.96-5.222 11.05-8.44 30.84-18.9 56.08-10.46 25.23 7.006 50.12 17.7 61.25 4.626 2.362 31.39 12.92 28.84-10.91-6.504-60.69 39.07-41.99 53.3-82.96 12.83-36.97 27.56-9.515 45.69-24.11 18.6-8.7 23.8-18.19 36.7-20.09l39.3-8.9c12.2-3.8 24.5-7.7 40.3-12.4 15.7-4.6 35-10 63.5-17.4 28.4-7.2 66.1-16.4 101.4-23.9 35.4-7.4 68.6-13.2 102.4-18.4 33.9-5.1 68.9-9.8 115.2-9.3 46.4.394 104.4 5.9 136.9 24.8 32.3 18.8 38.7 51 40.9 86.8 2.2 35.8.394 75.3.099 107.3-.296 32.1.788 56.9 13.8 72 13.1 14.9 38.1 20.2 62.6 15.9 24.4-4.3 48.3-18.3 70.9-29.1 22.4-10.7 43.6-18.3 54.6-33.9 11-15.5 11.9-39.3 6-69.5-5.8-30.1-18.4-66.9-30.6-93.9-12.1-26.9-23.8-44.2-48.9-56.8-25-12.6-63.4-20.6-89.8-28.2-26.3-7.5-40.8-14.6-49.9-22.3-9-7.6-12.7-15.9-9.1-21.5 3.5-5.5 14.7-8.5 34-5s46.8 13.5 69.9 19.8c23 6.2 44.9 8.8 57.7 1.4 12.8-7.3 18.3-24.9 0-52.7-18.4-27.8-61-66.2-107.3-97-46.6-30.6-98.3-54-146.7-69-48.5-14.8-94.5-21.5-139.8-32.5-45.2-10.8-83.5-18.1-136.9-32.9-54.1-14.8-97.5-14.6-139.8-16.9-42.9-2.2-.591 38.3-39.5 23.9z" fill="none" stroke="#fff" stroke-width="4"/>
    <ellipse transform="matrix(.69904 .71509 -.74827 .6634 0 0)" ry="20.6" rx="90.6" cy="1029.4" cx="1296.8" stroke="#fff" stroke-width="5.2"/>
    <path d="M87.6 1562.3l100.4 99.4-31.1 29.8-98-103.7z" fill="#fff" stroke="#fff" stroke-width="5"/>
    <path d="M534.6 1141.6l93.7-94.7 67.5 65.5-94.7 92.3zM74.2 1543.5l128 129 413.7-414.6L483 1123z" fill="#fff" stroke="#fff" stroke-width="5"/>
    <path d="M789.4 1170a450.1 450.1 0 0 1-217.7-217.7l65.7-39.7s14.1 23.6 22.2 36.3c7.9 12.7 17.4 27.9 23.6 35.1 16.2 19 15.4 18.5 28 32.9 9 10.2 31.1 28.4 41.2 37.8 9.3 8.6 27.5 20.1 38.6 26.6 11.5 6.8 30.7 17.1 30.7 17.1z" fill="#fff" stroke="#fff" stroke-width="5"/>
    <ellipse transform="matrix(.71005 .70415 -.75839 .6518 0 0)" ry="21.3" rx="93.7" cy="458.7" cx="1265.9" fill="#fff" stroke="#fff" stroke-width="4.7"/>
    <path d="M517.7 1119.4l103.4 104.4-22.1 19-101.4-102.4z" fill="#fff" stroke="#fff" stroke-width="5"/>
    <path d="M41.2 782.2c12.5 3.9 25.1 7.8 48.3 11.4 23.1 3.5 48.1 5.9 76.5 15.3 28.2 9.4 55.4 25.7 73.6 49.9 18.1 24.2 25.7 51.2 29.8 66 4.1 14.7-1.5 30.9-8.6 41.7-7.7 11.7-45.8 28.4-81.7 30.6-44.8 2.7-73.2-8.3-118.6-2.1" fill="none" stroke="#fff" stroke-width="2.7"/>
    <path d="M75.6 1027.5l46.2 11.1c10.7 2.6 31.1 10.1 81.5-1.6 12.4-2.9 57.9-19.8 76.8-29.7 18.9-9.8 33.2-16.2 43.4-30.3 10.1-13.9 16-35.5 14.6-61-1.3-25.5-10.2-54.8-25.2-81.5-14.8-26.5-35.9-50.5-50.8-79.9-14.8-29.4-23.7-64.2-32.1-102.4-8.3-39-16.2-82.2-12.8-124.1 3.4-42.2 21.1-91 45-122.1 23.7-31.9 55-50.7 87.4-62.4 32.4-11.7 65.9-16.2 96.9-21.5 30.8-5.2 58.7-11.2 81.8-32.3 23-23.1 115.6-75.3 133.3-111.7m151.6 9.4c-11.8-3.9-23.6-7.9-38.6-8.5-14.9-.493-32.4 2.1-52.1 18.5-19.7 16.2-40.8 45.4-42.9 81.8-1.9 36.4 15 79.2 32.3 122.1M662 439.6c-3.4 0-5.8 0-16.7-7.4-10.9-7.4-26-18.7-38.8-29.5-13.6-11-24-19.7-20.8-27.5 3.1-7.7 21.9-15.5 39.3-4.5 17.2 11 34 40.3 40 55.1 6 14.6 1.3 14.6-2 14.6z" fill="none" stroke="#fff" stroke-width="1.4"/>
    <path d="M83.5 1057s8.3 0 17.9 2.7c9.5 2.7 28.6 8.2 55.6 6.6 26.8-1.5 61.7-10.3 91.8-20.8 30-10.5 55.3-22.9 73.8-36 18.5-13.1 30.3-26.8 35.3-50.3 4.9-23.4 3-56.5-5.3-83.6-8.3-27-23.3-48.2-35.2-87.7-11.8-39.4-20.7-97.4-18.5-142.8 2.1-46.1 7.6-65.8 31.1-113.2 15.2-30.9 24-40.7 47.5-60.3 23.5-19.5 57.5-39.2 89.5-44.4 31.9-5.2 70.5-6.4 97.8 5.1 27.1 11.5 64.5 26.3 87.6 49.9" fill="none" stroke="#fff" stroke-width="1.4"/>
    <path d="M111.7 1128c16.2-8 33.1-16.4 62.2-26.4s70.6-21.9 102.4-38.1c32.4-16 55.7-36.2 74.1-61 18.4-24.8 31.9-54.1 37.5-96.9 5.5-42.7-15.59-97.82-12.99-146.02 2.4-48.8 4.63-88.11 18.83-121.41 14.1-33.9 41.14-75.53 65.14-99.73 23.9-24.1 63.85-55.82 86.75-64.62 22.8-8.6 55.67-13.86 106.77 8.404M506.9 1535.1c6.5-3.1 13.1-6.4 18.7-9.8 5.5-3.4 10.1-7.2 24.6-20.8 14.5-13.6 35.9-34.2 60.4-49.1 24.4-14.7 50.3-22.2 71.6-33.3 21.2-11.1 38.1-25.9 49-43.9 10.8-18 15.7-39.3 24.7-45.6 8.8-6.3 20.1 1.2 41.7 7.8 21.5 6.6 50.2 11.2 84.3 8.6 34-2.5 72.3-12.6 105.3-23 32.9-10.3 62.6-21.7 94.9-37.7 32.3-15.8 68.3-36.6 106.3-51.4 38.5-14.6 79.2-23.2 99.4-34.3 20.2-11 19.8-24.5 22.6-35.1 2.6-10.6 8.5-18.4 28.1-26.3 19.6-7.8 54.3-16.1 88.4-24.3m-213.7-926.8l163.5 98.5" fill="none" stroke="#fff" stroke-width="1.4"/>
    <path d="M1038.2 258.2a450.1 450.1 0 1 0 318.1 769.2 450.1 450.1 0 0 0-318.1-769.2zm-.689 40.8a407.7 407.7 0 0 1 319.1 153.6 407.7 407.7 0 0 1 87.3 224.5 407.7 407.7 0 0 1-.984 69.5 407.7 407.7 0 0 1-16.1 79.7 407.7 407.7 0 0 1-31.7 75 407.7 407.7 0 0 1-136.9 147.7 407.7 407.7 0 0 1-150.7 58.7 407.7 407.7 0 0 1-40.4 4.8 407.7 407.7 0 0 1-28.8.985 407.7 407.7 0 0 1-195-49.9 407.7 407.7 0 0 1-97.1-73.7 407.7 407.7 0 0 1-44-514.1 407.7 407.7 0 0 1 24.6-32.4 407.7 407.7 0 0 1 27.7-29.8 407.7 407.7 0 0 1 30.6-26.8 407.7 407.7 0 0 1 33-23.6 407.7 407.7 0 0 1 150.7-58.7 407.7 407.7 0 0 1 69.3-5.9z" stroke-width="5" stroke="#fff" fill="#fff"/>
    <path d="M510.3 771.4c-9.5 9.8-22.9 29.6-32.6 47.7-9.5 18-15.4 34.4-18.1 50.9-2.5 16.3-1.2 45.3 8.6 55.8 10 10.4 29.1 8.8 42.2 7.4 13.1-1.2 20.1-2.3 26.1-10 5.8-7.5 10.4-21.8 10.4-46.2s-4.5-59-7.8-79.9c-3.3-20.8-5.4-28.2-9.3-31.9-3.9-3.6-9.8-3.6-19.4 6.2z" fill="none" stroke="#fff" stroke-width="4.9"/>
    <path d="M687.6 575.4c-10.6 3.9-18.1 11.8-21 22.3-2.8 9.8-.787 23.4 6.3 42.8 6.5 17.6 13.3 29.1 20.9 34.9 9.3 7.2 20.9 8.8 32.7 4.5 10.7-3.9 18-11.6 21-22.1 2.6-9.7.787-23.6-6.1-42.2-6.6-18.2-13.5-29.7-21.2-35.6-9.3-7.2-20.9-8.8-32.7-4.5zm5.8 15.8c5-1.8 10.1-.492 14.4 3.6 3.4 3.4 8.6 13.7 13.7 27.5 4.1 11.2 7.1 22.5 7.1 27.1 0 6.6-3 11.5-8.6 13.5-5.1 1.8-10 .69-14.3-3.3-3.4-3.4-8.4-13.3-13.3-26.7-4.3-11.7-7.5-23.3-7.4-27.9-.099-6.7 2.9-11.7 8.5-13.8zm79.5-10l25.5 68.6 19.6-7.2-37-99.4-13 4.8c1.2 12.9-6.6 22.7-23.8 29.1l4.8 13zm70.7-63.8c-10.6 3.9-18.1 11.8-21 22.3-2.8 9.8-.787 23.4 6.3 42.8 6.5 17.6 13.3 29.1 20.9 34.9 9.3 7.2 20.9 8.8 32.7 4.5 10.7-3.9 18-11.6 21-22.1 2.6-9.7.787-23.6-6.1-42.2-6.6-18.2-13.5-29.7-21.2-35.6-9.3-7.2-20.9-8.8-32.7-4.5zm5.8 15.8c5-1.8 10.1-.493 14.4 3.6 3.4 3.4 8.6 13.7 13.7 27.5 4.1 11.2 7.1 22.5 7.1 27.1 0 6.6-3 11.5-8.6 13.5-5.1 1.8-10 .69-14.3-3.3-3.4-3.4-8.4-13.3-13.3-26.7-4.3-11.7-7.5-23.3-7.4-27.9-.099-6.7 2.9-11.7 8.5-13.8zm72.2-44.9c-10.6 3.9-18.1 11.8-21 22.3-2.8 9.8-.788 23.4 6.3 42.8 6.5 17.6 13.3 29.1 20.9 34.9 9.3 7.2 20.9 8.8 32.7 4.5 10.7-3.9 18-11.6 21-22.1 2.6-9.7.788-23.6-6.1-42.2-6.6-18.2-13.5-29.7-21.2-35.6-9.3-7.2-20.9-8.8-32.7-4.5zm5.8 15.8c5-1.8 10.1-.493 14.4 3.6 3.4 3.4 8.6 13.7 13.7 27.5 4.1 11.2 7.1 22.5 7.1 27.1 0 6.6-3 11.5-8.6 13.5-5.1 1.8-10 .69-14.3-3.3-3.4-3.4-8.4-13.3-13.3-26.7-4.3-11.7-7.5-23.3-7.4-27.9-.098-6.7 2.9-11.7 8.5-13.8zm79.5-10l25.5 68.6 19.6-7.2-37-99.4-13 4.8c1.2 12.9-6.6 22.7-23.8 29.1l4.8 13zm78.1-29l25.5 68.6 19.6-7.2-37-99.4-13 4.8c1.2 12.9-6.6 22.7-23.8 29.1l4.8 13zm78.1-29l25.5 68.6 19.6-7.2-37-99.4-13 4.8c1.2 12.9-6.6 22.7-23.8 29.1l4.8 13zm78.1-29l25.5 68.6 19.6-7.2-37-99.4-13 4.8c1.2 12.9-6.6 22.7-23.8 29.1l4.8 13zM752.4 750.8c-10.6 3.9-18.1 11.8-21 22.3-2.8 9.8-.788 23.4 6.3 42.8 6.5 17.6 13.3 29.1 20.9 34.9 9.3 7.2 20.9 8.8 32.7 4.5 10.7-3.9 18-11.6 21-22.1 2.6-9.7.788-23.6-6.1-42.2-6.6-18.2-13.5-29.7-21.2-35.6-9.3-7.2-20.9-8.8-32.7-4.5zm5.8 15.8c5-1.8 10.1-.493 14.4 3.6 3.4 3.4 8.6 13.7 13.7 27.5 4.1 11.2 7.1 22.5 7.1 27.1 0 6.6-3 11.5-8.6 13.5-5.1 1.8-10 .69-14.3-3.3-3.4-3.4-8.4-13.3-13.3-26.7-4.3-11.7-7.5-23.3-7.4-27.9-.098-6.7 2.9-11.7 8.5-13.8zm79.5-10l25.5 68.6 19.6-7.2-37-99.4-13 4.8c1.2 12.9-6.6 22.7-23.8 29.1l4.8 13zm70.7-63.8c-10.6 3.9-18.1 11.8-21 22.3-2.8 9.8-.787 23.4 6.3 42.8 6.5 17.6 13.3 29.1 20.9 34.9 9.3 7.2 20.9 8.8 32.7 4.5 10.7-3.9 18-11.6 21-22.1 2.6-9.7.788-23.6-6.1-42.2-6.6-18.2-13.5-29.7-21.2-35.6-9.3-7.2-20.9-8.8-32.7-4.5zm5.8 15.8c5-1.8 10.1-.493 14.4 3.6 3.4 3.4 8.6 13.7 13.7 27.5 4.1 11.2 7.1 22.5 7.1 27.1 0 6.6-3 11.5-8.6 13.5-5.1 1.8-10 .69-14.3-3.3-3.4-3.4-8.4-13.3-13.3-26.7-4.3-11.7-7.5-23.3-7.4-27.9-.098-6.7 2.9-11.7 8.5-13.8zm79.5-10l25.5 68.6 19.6-7.2-37-99.4-13 4.8c1.2 12.9-6.6 22.7-23.8 29.1l4.8 13zm70.7-63.8c-10.6 3.9-18.1 11.8-21 22.3-2.8 9.8-.788 23.4 6.3 42.8 6.5 17.6 13.3 29.1 20.9 34.9 9.3 7.2 20.9 8.8 32.7 4.5 10.7-3.9 18-11.6 21-22.1 2.6-9.7.788-23.6-6.1-42.2-6.6-18.2-13.5-29.7-21.2-35.6-9.3-7.2-20.9-8.8-32.7-4.5zm5.8 15.8c5-1.8 10.1-.493 14.4 3.6 3.4 3.4 8.6 13.7 13.7 27.5 4.1 11.2 7.1 22.5 7.1 27.1 0 6.6-3 11.5-8.6 13.5-5.1 1.8-10 .69-14.3-3.3-3.4-3.4-8.4-13.3-13.3-26.7-4.3-11.7-7.5-23.3-7.4-27.9-.099-6.7 2.9-11.7 8.5-13.8zm72.2-44.9c-10.6 3.9-18.1 11.8-21 22.3-2.8 9.8-.788 23.4 6.3 42.8 6.5 17.6 13.3 29.1 20.9 34.9 9.3 7.2 20.9 8.8 32.7 4.5 10.7-3.9 18-11.6 21-22.1 2.6-9.7.788-23.6-6.1-42.2-6.6-18.2-13.5-29.7-21.2-35.6-9.3-7.2-20.9-8.8-32.7-4.5zm5.8 15.8c5-1.8 10.1-.493 14.4 3.6 3.4 3.4 8.6 13.7 13.7 27.5 4.1 11.2 7.1 22.5 7.1 27.1 0 6.6-3 11.5-8.6 13.5-5.1 1.8-10 .69-14.3-3.3-3.4-3.4-8.4-13.3-13.3-26.7-4.3-11.7-7.5-23.3-7.4-27.9-.098-6.7 2.9-11.7 8.5-13.8zm79.5-10l25.5 68.6 19.6-7.2-37-99.4-13 4.8c1.2 12.9-6.6 22.7-23.8 29.1l4.8 13zm78.1-29l25.5 68.6 19.6-7.2-37-99.4-13 4.8c1.2 12.9-6.6 22.7-23.8 29.1l4.8 13zM818.6 927c-10.6 3.9-18.1 11.8-21 22.3-2.8 9.8-.788 23.4 6.3 42.8 6.5 17.6 13.3 29.1 20.9 34.9 9.3 7.2 20.9 8.8 32.7 4.5 10.7-3.9 18-11.6 21-22.1 2.6-9.7.787-23.6-6.1-42.2-6.6-18.2-13.5-29.7-21.2-35.6-9.3-7.2-20.9-8.8-32.7-4.5zm5.8 15.8c5-1.8 10.1-.492 14.4 3.6 3.4 3.4 8.6 13.7 13.7 27.5 4.1 11.2 7.1 22.5 7.1 27.1 0 6.6-3 11.5-8.6 13.5-5.1 1.8-10 .69-14.3-3.3-3.4-3.4-8.4-13.3-13.3-26.7-4.3-11.7-7.5-23.3-7.4-27.9-.099-6.7 2.9-11.7 8.5-13.8zm79.5-10l25.5 68.6 19.6-7.2-37-99.4-13 4.8c1.2 12.9-6.6 22.7-23.8 29.1l4.8 13zm70.7-63.8c-10.6 3.9-18.1 11.8-21 22.3-2.8 9.8-.788 23.4 6.3 42.8 6.5 17.6 13.3 29.1 20.9 34.9 9.3 7.2 20.9 8.8 32.7 4.5 10.7-3.9 18-11.6 21-22.1 2.6-9.7.787-23.6-6.1-42.2-6.6-18.2-13.5-29.7-21.2-35.6-9.3-7.2-20.9-8.8-32.7-4.5zm5.8 15.8c5-1.8 10.1-.492 14.4 3.6 3.4 3.4 8.6 13.7 13.7 27.5 4.1 11.2 7.1 22.5 7.1 27.1 0 6.6-3 11.5-8.6 13.5-5.1 1.8-10 .69-14.3-3.3-3.4-3.4-8.4-13.3-13.3-26.7-4.3-11.7-7.5-23.3-7.4-27.9-.099-6.7 2.9-11.7 8.5-13.8zm72.2-44.9c-10.6 3.9-18.1 11.8-21 22.3-2.8 9.8-.787 23.4 6.3 42.8 6.5 17.6 13.3 29.1 20.9 34.9 9.3 7.2 20.9 8.8 32.7 4.5 10.7-3.9 18-11.6 21-22.1 2.6-9.7.787-23.6-6.1-42.2-6.6-18.2-13.5-29.7-21.2-35.6-9.3-7.2-20.9-8.8-32.7-4.5zm5.8 15.8c5-1.8 10.1-.493 14.4 3.6 3.4 3.4 8.6 13.7 13.7 27.5 4.1 11.2 7.1 22.5 7.1 27.1 0 6.6-3 11.5-8.6 13.5-5.1 1.8-10 .69-14.3-3.3-3.4-3.4-8.4-13.3-13.3-26.7-4.3-11.7-7.5-23.3-7.4-27.9-.1-6.7 2.9-11.7 8.5-13.8zm79.5-10l25.5 68.6 19.6-7.2-37-99.4-13 4.8c1.2 12.9-6.6 22.7-23.8 29.1l4.8 13zm78.1-29l25.5 68.6 19.6-7.2-37-99.4-13 4.8c1.2 12.9-6.6 22.7-23.8 29.1l4.8 13zm70.7-63.8c-10.6 3.9-18.1 11.8-21 22.3-2.8 9.8-.788 23.4 6.3 42.8 6.5 17.6 13.3 29.1 20.9 34.9 9.3 7.2 20.9 8.8 32.7 4.5 10.7-3.9 18-11.6 21-22.1 2.6-9.7.788-23.6-6.1-42.2-6.6-18.2-13.5-29.7-21.2-35.6-9.3-7.2-20.9-8.8-32.7-4.5zm5.8 15.8c5-1.8 10.1-.493 14.4 3.6 3.4 3.4 8.6 13.7 13.7 27.5 4.1 11.2 7.1 22.5 7.1 27.1 0 6.6-3 11.5-8.6 13.5-5.1 1.8-10 .69-14.3-3.3-3.4-3.4-8.4-13.3-13.3-26.7-4.3-11.7-7.5-23.3-7.4-27.9-.098-6.7 2.9-11.7 8.5-13.8zm79.5-10l25.5 68.6 19.6-7.2-37-99.4-13 4.8c1.2 12.9-6.6 22.7-23.8 29.1l4.8 13z" fill="#fff"/>
</svg>
